<svg id="visual" viewBox="0 0 900 600" width="900" height="600" xmlns="http://www.w3.org/2000/svg" xmlns:xlink="http://www.w3.org/1999/xlink" version="1.1"><g stroke-width="1" stroke-linejoin="bevel"><path d="M477.9 288L412.1 237L387.1 312Z" fill="#5f27b8" stroke="#5f27b8"></path><path d="M387.1 312L402.1 390L477.9 288Z" fill="#6c31ce" stroke="#6c31ce"></path><path d="M477.9 288L483.9 182L412.1 237Z" fill="#7336d9" stroke="#7336d9"></path><path d="M483.9 182L457.9 161L412.1 237Z" fill="#7d3ee9" stroke="#7d3ee9"></path><path d="M402.1 390L503.9 387L477.9 288Z" fill="#5c24b3" stroke="#5c24b3"></path><path d="M477.9 288L610.7 218L483.9 182Z" fill="#692ec9" stroke="#692ec9"></path><path d="M402.1 390L485.9 404L503.9 387Z" fill="#5c24b3" stroke="#5c24b3"></path><path d="M270.5 267L331.3 378L387.1 312Z" fill="#662cc3" stroke="#662cc3"></path><path d="M387.1 312L331.3 378L402.1 390Z" fill="#6c31ce" stroke="#6c31ce"></path><path d="M292.3 201L290.5 241L412.1 237Z" fill="#6229be" stroke="#6229be"></path><path d="M412.1 237L290.5 241L387.1 312Z" fill="#7d3ee9" stroke="#7d3ee9"></path><path d="M290.5 241L279.3 258L387.1 312Z" fill="#5f27b8" stroke="#5f27b8"></path><path d="M457.9 161L385.1 136L412.1 237Z" fill="#7a3be4" stroke="#7a3be4"></path><path d="M292.3 201L270.5 267L279.3 258Z" fill="#6c31ce" stroke="#6c31ce"></path><path d="M279.3 258L270.5 267L387.1 312Z" fill="#6f34d3" stroke="#6f34d3"></path><path d="M385.1 136L292.3 201L412.1 237Z" fill="#662cc3" stroke="#662cc3"></path><path d="M290.5 241L292.3 201L279.3 258Z" fill="#6c31ce" stroke="#6c31ce"></path><path d="M331.3 378L382.1 445L402.1 390Z" fill="#6f34d3" stroke="#6f34d3"></path><path d="M402.1 390L434.1 490L485.9 404Z" fill="#6229be" stroke="#6229be"></path><path d="M611.5 335L477.9 288L503.9 387Z" fill="#5c24b3" stroke="#5c24b3"></path><path d="M611.5 335L612.7 309L477.9 288Z" fill="#6c31ce" stroke="#6c31ce"></path><path d="M577.7 424L611.5 335L503.9 387Z" fill="#6f34d3" stroke="#6f34d3"></path><path d="M612.7 309L610.7 218L477.9 288Z" fill="#6c31ce" stroke="#6c31ce"></path><path d="M511.9 52L417.1 63L457.9 161Z" fill="#662cc3" stroke="#662cc3"></path><path d="M385.1 136L316.3 122L292.3 201Z" fill="#5c24b3" stroke="#5c24b3"></path><path d="M157.6 344L221.5 364L270.5 267Z" fill="#6c31ce" stroke="#6c31ce"></path><path d="M485.9 404L577.7 424L503.9 387Z" fill="#7a3be4" stroke="#7a3be4"></path><path d="M575.7 475L577.7 424L485.9 404Z" fill="#7639de" stroke="#7639de"></path><path d="M382.1 445L434.1 490L402.1 390Z" fill="#6f34d3" stroke="#6f34d3"></path><path d="M457.9 161L417.1 63L385.1 136Z" fill="#5f27b8" stroke="#5f27b8"></path><path d="M385.1 136L417.1 63L316.3 122Z" fill="#7d3ee9" stroke="#7d3ee9"></path><path d="M511.9 52L457.9 161L483.9 182Z" fill="#5f27b8" stroke="#5f27b8"></path><path d="M158.6 190L270.5 267L292.3 201Z" fill="#7d3ee9" stroke="#7d3ee9"></path><path d="M270.5 267L221.5 364L331.3 378Z" fill="#692ec9" stroke="#692ec9"></path><path d="M331.3 378L300.3 489L382.1 445Z" fill="#7d3ee9" stroke="#7d3ee9"></path><path d="M377.3 600L449.9 522L434.1 490Z" fill="#7639de" stroke="#7639de"></path><path d="M221.5 364L235.5 407L331.3 378Z" fill="#5c24b3" stroke="#5c24b3"></path><path d="M610.7 218L579.7 103L483.9 182Z" fill="#6f34d3" stroke="#6f34d3"></path><path d="M316.3 500L434.1 490L382.1 445Z" fill="#7336d9" stroke="#7336d9"></path><path d="M434.1 490L575.7 475L485.9 404Z" fill="#6229be" stroke="#6229be"></path><path d="M449.9 522L575.7 475L434.1 490Z" fill="#7a3be4" stroke="#7a3be4"></path><path d="M577.7 424L684.5 338L611.5 335Z" fill="#6f34d3" stroke="#6f34d3"></path><path d="M610.7 218L594.7 109L579.7 103Z" fill="#7639de" stroke="#7639de"></path><path d="M235.5 407L300.3 489L331.3 378Z" fill="#6229be" stroke="#6229be"></path><path d="M300.3 489L316.3 500L382.1 445Z" fill="#7a3be4" stroke="#7a3be4"></path><path d="M607.5 73L511.9 52L579.7 103Z" fill="#5f27b8" stroke="#5f27b8"></path><path d="M579.7 103L511.9 52L483.9 182Z" fill="#692ec9" stroke="#692ec9"></path><path d="M610.7 218L645.5 164L594.7 109Z" fill="#5f27b8" stroke="#5f27b8"></path><path d="M692.4 198L645.5 164L610.7 218Z" fill="#5f27b8" stroke="#5f27b8"></path><path d="M692.5 272L610.7 218L612.7 309Z" fill="#5f27b8" stroke="#5f27b8"></path><path d="M304.3 56L250.5 106L316.3 122Z" fill="#6229be" stroke="#6229be"></path><path d="M316.3 122L250.5 106L292.3 201Z" fill="#7336d9" stroke="#7336d9"></path><path d="M575.7 475L606.7 462L577.7 424Z" fill="#7639de" stroke="#7639de"></path><path d="M611.5 335L684.5 338L612.7 309Z" fill="#7639de" stroke="#7639de"></path><path d="M417.1 63L304.3 56L316.3 122Z" fill="#662cc3" stroke="#662cc3"></path><path d="M335.3 0L304.3 56L417.1 63Z" fill="#6229be" stroke="#6229be"></path><path d="M606.7 462L684.5 338L577.7 424Z" fill="#5c24b3" stroke="#5c24b3"></path><path d="M684.5 338L692.5 272L612.7 309Z" fill="#7a3be4" stroke="#7a3be4"></path><path d="M684.5 492L699.4 337L684.5 338Z" fill="#7336d9" stroke="#7336d9"></path><path d="M684.5 338L708.4 316L692.5 272Z" fill="#5c24b3" stroke="#5c24b3"></path><path d="M735.4 80L607.5 73L645.5 164Z" fill="#6f34d3" stroke="#6f34d3"></path><path d="M645.5 164L607.5 73L594.7 109Z" fill="#6f34d3" stroke="#6f34d3"></path><path d="M594.7 109L607.5 73L579.7 103Z" fill="#7a3be4" stroke="#7a3be4"></path><path d="M115.6 230L157.6 344L270.5 267Z" fill="#6c31ce" stroke="#6c31ce"></path><path d="M221.5 364L149.6 376L235.5 407Z" fill="#7336d9" stroke="#7336d9"></path><path d="M235.5 407L209.5 527L300.3 489Z" fill="#5c24b3" stroke="#5c24b3"></path><path d="M692.5 272L692.4 198L610.7 218Z" fill="#7639de" stroke="#7639de"></path><path d="M781.4 198L692.4 198L692.5 272Z" fill="#6c31ce" stroke="#6c31ce"></path><path d="M699.4 337L708.4 316L684.5 338Z" fill="#7d3ee9" stroke="#7d3ee9"></path><path d="M103.8 138L158.6 190L250.5 106Z" fill="#5f27b8" stroke="#5f27b8"></path><path d="M250.5 106L158.6 190L292.3 201Z" fill="#692ec9" stroke="#692ec9"></path><path d="M488.9 0L458.1 0L511.9 52Z" fill="#5f27b8" stroke="#5f27b8"></path><path d="M511.9 52L458.1 0L417.1 63Z" fill="#662cc3" stroke="#662cc3"></path><path d="M604.5 0L488.9 0L511.9 52Z" fill="#7336d9" stroke="#7336d9"></path><path d="M94.8 395L149.6 376L157.6 344Z" fill="#5f27b8" stroke="#5f27b8"></path><path d="M157.6 344L149.6 376L221.5 364Z" fill="#5c24b3" stroke="#5c24b3"></path><path d="M458.1 0L335.3 0L417.1 63Z" fill="#7639de" stroke="#7639de"></path><path d="M304.3 56L276.5 25L250.5 106Z" fill="#7336d9" stroke="#7336d9"></path><path d="M335.3 0L276.5 25L304.3 56Z" fill="#6c31ce" stroke="#6c31ce"></path><path d="M377.3 600L432.1 600L449.9 522Z" fill="#7a3be4" stroke="#7a3be4"></path><path d="M449.9 522L496.9 600L575.7 475Z" fill="#7336d9" stroke="#7336d9"></path><path d="M575.7 475L670.5 492L606.7 462Z" fill="#7a3be4" stroke="#7a3be4"></path><path d="M377.3 600L434.1 490L316.3 500Z" fill="#662cc3" stroke="#662cc3"></path><path d="M377.3 600L316.3 500L201.5 600Z" fill="#7336d9" stroke="#7336d9"></path><path d="M103.8 138L115.6 230L158.6 190Z" fill="#5c24b3" stroke="#5c24b3"></path><path d="M158.6 190L115.6 230L270.5 267Z" fill="#5f27b8" stroke="#5f27b8"></path><path d="M628.5 600L670.5 492L575.7 475Z" fill="#6229be" stroke="#6229be"></path><path d="M606.7 462L670.5 492L684.5 338Z" fill="#5c24b3" stroke="#5c24b3"></path><path d="M699.4 337L817.2 340L708.4 316Z" fill="#5f27b8" stroke="#5f27b8"></path><path d="M209.5 527L316.3 500L300.3 489Z" fill="#7639de" stroke="#7639de"></path><path d="M432.1 600L496.9 600L449.9 522Z" fill="#7a3be4" stroke="#7a3be4"></path><path d="M135.6 492L209.5 527L235.5 407Z" fill="#662cc3" stroke="#662cc3"></path><path d="M706.4 565L684.5 492L670.5 492Z" fill="#662cc3" stroke="#662cc3"></path><path d="M670.5 492L684.5 492L684.5 338Z" fill="#6c31ce" stroke="#6c31ce"></path><path d="M613.7 0L604.5 0L607.5 73Z" fill="#6229be" stroke="#6229be"></path><path d="M607.5 73L604.5 0L511.9 52Z" fill="#5c24b3" stroke="#5c24b3"></path><path d="M693.4 0L613.7 0L607.5 73Z" fill="#7d3ee9" stroke="#7d3ee9"></path><path d="M115.6 230L87.8 303L157.6 344Z" fill="#7639de" stroke="#7639de"></path><path d="M113.6 459L135.6 492L235.5 407Z" fill="#7639de" stroke="#7639de"></path><path d="M496.9 600L560.7 600L575.7 475Z" fill="#5f27b8" stroke="#5f27b8"></path><path d="M214.5 0L185.6 40L276.5 25Z" fill="#692ec9" stroke="#692ec9"></path><path d="M276.5 25L185.6 40L250.5 106Z" fill="#662cc3" stroke="#662cc3"></path><path d="M115.6 230L74.8 220L87.8 303Z" fill="#6229be" stroke="#6229be"></path><path d="M87.8 303L94.8 395L157.6 344Z" fill="#7336d9" stroke="#7336d9"></path><path d="M335.3 0L214.5 0L276.5 25Z" fill="#7639de" stroke="#7639de"></path><path d="M111.8 27L103.8 138L185.6 40Z" fill="#662cc3" stroke="#662cc3"></path><path d="M185.6 40L103.8 138L250.5 106Z" fill="#6229be" stroke="#6229be"></path><path d="M113.6 459L235.5 407L149.6 376Z" fill="#7d3ee9" stroke="#7d3ee9"></path><path d="M103.8 138L74.8 220L115.6 230Z" fill="#7639de" stroke="#7639de"></path><path d="M87.8 303L0 341L94.8 395Z" fill="#7d3ee9" stroke="#7d3ee9"></path><path d="M94.8 395L113.6 459L149.6 376Z" fill="#6f34d3" stroke="#6f34d3"></path><path d="M708.4 316L781.4 198L692.5 272Z" fill="#7336d9" stroke="#7336d9"></path><path d="M692.4 198L735.4 80L645.5 164Z" fill="#7a3be4" stroke="#7a3be4"></path><path d="M817.2 340L781.4 198L708.4 316Z" fill="#662cc3" stroke="#662cc3"></path><path d="M796.2 161L735.4 80L692.4 198Z" fill="#6f34d3" stroke="#6f34d3"></path><path d="M684.5 492L776.4 409L699.4 337Z" fill="#7336d9" stroke="#7336d9"></path><path d="M560.7 600L628.5 600L575.7 475Z" fill="#5f27b8" stroke="#5f27b8"></path><path d="M684.5 492L835.2 543L776.4 409Z" fill="#7639de" stroke="#7639de"></path><path d="M851.2 247L796.2 161L781.4 198Z" fill="#6f34d3" stroke="#6f34d3"></path><path d="M781.4 198L796.2 161L692.4 198Z" fill="#7336d9" stroke="#7336d9"></path><path d="M772.2 47L693.4 0L735.4 80Z" fill="#692ec9" stroke="#692ec9"></path><path d="M735.4 80L693.4 0L607.5 73Z" fill="#7639de" stroke="#7639de"></path><path d="M197.6 600L209.5 527L105.8 572Z" fill="#7336d9" stroke="#7336d9"></path><path d="M197.6 600L201.5 600L209.5 527Z" fill="#662cc3" stroke="#662cc3"></path><path d="M209.5 527L201.5 600L316.3 500Z" fill="#7639de" stroke="#7639de"></path><path d="M105.8 572L209.5 527L135.6 492Z" fill="#7336d9" stroke="#7336d9"></path><path d="M776.4 409L817.2 340L699.4 337Z" fill="#5f27b8" stroke="#5f27b8"></path><path d="M628.5 600L706.4 565L670.5 492Z" fill="#6c31ce" stroke="#6c31ce"></path><path d="M820.2 412L833.2 337L817.2 340Z" fill="#7336d9" stroke="#7336d9"></path><path d="M133.6 0L111.8 27L185.6 40Z" fill="#6229be" stroke="#6229be"></path><path d="M0 270L87.8 303L74.8 220Z" fill="#5f27b8" stroke="#5f27b8"></path><path d="M820.2 412L817.2 340L776.4 409Z" fill="#7336d9" stroke="#7336d9"></path><path d="M817.2 340L851.2 247L781.4 198Z" fill="#6229be" stroke="#6229be"></path><path d="M214.5 0L133.6 0L185.6 40Z" fill="#5f27b8" stroke="#5f27b8"></path><path d="M835.2 543L820.2 412L776.4 409Z" fill="#692ec9" stroke="#692ec9"></path><path d="M796.2 161L772.2 47L735.4 80Z" fill="#5c24b3" stroke="#5c24b3"></path><path d="M900 295L851.2 247L833.2 337Z" fill="#662cc3" stroke="#662cc3"></path><path d="M833.2 337L851.2 247L817.2 340Z" fill="#7a3be4" stroke="#7a3be4"></path><path d="M796.2 161L900 74L772.2 47Z" fill="#7639de" stroke="#7639de"></path><path d="M706.4 565L835.2 543L684.5 492Z" fill="#692ec9" stroke="#692ec9"></path><path d="M628.5 600L716.4 600L706.4 565Z" fill="#6c31ce" stroke="#6c31ce"></path><path d="M0 270L74.8 220L0 147Z" fill="#5f27b8" stroke="#5f27b8"></path><path d="M0 270L0 284L87.8 303Z" fill="#6c31ce" stroke="#6c31ce"></path><path d="M94.8 395L31.8 463L113.6 459Z" fill="#5f27b8" stroke="#5f27b8"></path><path d="M31.8 463L105.8 572L135.6 492Z" fill="#6f34d3" stroke="#6f34d3"></path><path d="M0 147L74.8 220L103.8 138Z" fill="#6f34d3" stroke="#6f34d3"></path><path d="M0 284L0 341L87.8 303Z" fill="#7a3be4" stroke="#7a3be4"></path><path d="M31.8 463L135.6 492L113.6 459Z" fill="#7639de" stroke="#7639de"></path><path d="M0 448L31.8 463L94.8 395Z" fill="#5c24b3" stroke="#5c24b3"></path><path d="M0 65L103.8 138L111.8 27Z" fill="#6c31ce" stroke="#6c31ce"></path><path d="M0 65L0 147L103.8 138Z" fill="#6c31ce" stroke="#6c31ce"></path><path d="M0 341L0 448L94.8 395Z" fill="#5f27b8" stroke="#5f27b8"></path><path d="M0 549L62.8 600L105.8 572Z" fill="#662cc3" stroke="#662cc3"></path><path d="M900 393L900 295L833.2 337Z" fill="#7639de" stroke="#7639de"></path><path d="M851.2 247L900 196L796.2 161Z" fill="#5f27b8" stroke="#5f27b8"></path><path d="M900 393L833.2 337L820.2 412Z" fill="#7336d9" stroke="#7336d9"></path><path d="M133.6 0L48.8 0L111.8 27Z" fill="#7639de" stroke="#7639de"></path><path d="M900 295L900 227L851.2 247Z" fill="#6c31ce" stroke="#6c31ce"></path><path d="M900 227L900 196L851.2 247Z" fill="#5c24b3" stroke="#5c24b3"></path><path d="M48.8 0L0 65L111.8 27Z" fill="#7336d9" stroke="#7336d9"></path><path d="M802.2 600L835.2 543L706.4 565Z" fill="#7d3ee9" stroke="#7d3ee9"></path><path d="M0 549L105.8 572L31.8 463Z" fill="#7639de" stroke="#7639de"></path><path d="M105.8 572L62.8 600L197.6 600Z" fill="#7a3be4" stroke="#7a3be4"></path><path d="M900 440L900 393L820.2 412Z" fill="#5f27b8" stroke="#5f27b8"></path><path d="M716.4 600L802.2 600L706.4 565Z" fill="#7d3ee9" stroke="#7d3ee9"></path><path d="M900 474L820.2 412L835.2 543Z" fill="#6229be" stroke="#6229be"></path><path d="M900 474L900 440L820.2 412Z" fill="#662cc3" stroke="#662cc3"></path><path d="M0 448L0 549L31.8 463Z" fill="#7a3be4" stroke="#7a3be4"></path><path d="M900 600L900 474L835.2 543Z" fill="#5f27b8" stroke="#5f27b8"></path><path d="M48.8 0L0 0L0 65Z" fill="#6f34d3" stroke="#6f34d3"></path><path d="M900 196L900 74L796.2 161Z" fill="#7336d9" stroke="#7336d9"></path><path d="M772.2 47L863.2 0L693.4 0Z" fill="#6f34d3" stroke="#6f34d3"></path><path d="M900 74L863.2 0L772.2 47Z" fill="#7d3ee9" stroke="#7d3ee9"></path><path d="M0 549L0 600L62.8 600Z" fill="#7d3ee9" stroke="#7d3ee9"></path><path d="M900 74L900 0L863.2 0Z" fill="#662cc3" stroke="#662cc3"></path><path d="M802.2 600L900 600L835.2 543Z" fill="#7d3ee9" stroke="#7d3ee9"></path></g></svg>