<svg id="visual" viewBox="0 0 1800 200" width="1800" height="200" xmlns="http://www.w3.org/2000/svg" xmlns:xlink="http://www.w3.org/1999/xlink" version="1.1"><g stroke-width="1" stroke-linejoin="bevel"><path d="M839 73L809.5 0L801.5 94Z" fill="#6f3bc5" stroke="#6f3bc5"></path><path d="M809.5 0L681 0L801.5 94Z" fill="#5c24b3" stroke="#5c24b3"></path><path d="M681 0L695 120L801.5 94Z" fill="#5c24b3" stroke="#5c24b3"></path><path d="M839 73L924 0L809.5 0Z" fill="#642eba" stroke="#642eba"></path><path d="M695 120L801.5 200L801.5 94Z" fill="#6f3bc5" stroke="#6f3bc5"></path><path d="M801.5 94L801.5 200L839 73Z" fill="#6b37c1" stroke="#6b37c1"></path><path d="M839 73L1015.5 57L924 0Z" fill="#6732be" stroke="#6732be"></path><path d="M681 0L622.5 0L695 120Z" fill="#642eba" stroke="#642eba"></path><path d="M801.5 200L912 200L839 73Z" fill="#5c24b3" stroke="#5c24b3"></path><path d="M1015.5 57L1007.5 0L924 0Z" fill="#6732be" stroke="#6732be"></path><path d="M912 200L1015.5 57L839 73Z" fill="#7e4cd3" stroke="#7e4cd3"></path><path d="M591.5 200L614 200L533.5 158Z" fill="#733fc9" stroke="#733fc9"></path><path d="M695 120L614 200L801.5 200Z" fill="#8250d7" stroke="#8250d7"></path><path d="M533.5 158L614 200L695 120Z" fill="#6029b7" stroke="#6029b7"></path><path d="M912 200L1035.5 200L1015.5 57Z" fill="#7a48d0" stroke="#7a48d0"></path><path d="M622.5 0L533.5 158L695 120Z" fill="#7a48d0" stroke="#7a48d0"></path><path d="M1015.5 57L1089 0L1007.5 0Z" fill="#7e4cd3" stroke="#7e4cd3"></path><path d="M1171 97L1089 0L1015.5 57Z" fill="#6029b7" stroke="#6029b7"></path><path d="M622.5 0L496 150L533.5 158Z" fill="#6732be" stroke="#6732be"></path><path d="M533.5 158L434 200L591.5 200Z" fill="#6b37c1" stroke="#6b37c1"></path><path d="M1035.5 200L1118 200L1015.5 57Z" fill="#7743cc" stroke="#7743cc"></path><path d="M622.5 0L439 0L496 150Z" fill="#5c24b3" stroke="#5c24b3"></path><path d="M1118 200L1171 97L1015.5 57Z" fill="#7a48d0" stroke="#7a48d0"></path><path d="M1171 97L1190.5 0L1089 0Z" fill="#6b37c1" stroke="#6b37c1"></path><path d="M1289.5 200L1191.5 85L1171 97Z" fill="#6b37c1" stroke="#6b37c1"></path><path d="M1171 97L1191.5 85L1190.5 0Z" fill="#642eba" stroke="#642eba"></path><path d="M327.5 125L434 200L496 150Z" fill="#7743cc" stroke="#7743cc"></path><path d="M496 150L434 200L533.5 158Z" fill="#642eba" stroke="#642eba"></path><path d="M439 0L327.5 125L496 150Z" fill="#7743cc" stroke="#7743cc"></path><path d="M345.5 0L327.5 125L439 0Z" fill="#5c24b3" stroke="#5c24b3"></path><path d="M327.5 125L338.5 200L434 200Z" fill="#7a48d0" stroke="#7a48d0"></path><path d="M1191.5 85L1295 0L1190.5 0Z" fill="#7a48d0" stroke="#7a48d0"></path><path d="M1328 54L1295 0L1191.5 85Z" fill="#7e4cd3" stroke="#7e4cd3"></path><path d="M1118 200L1289.5 200L1171 97Z" fill="#5c24b3" stroke="#5c24b3"></path><path d="M1289.5 200L1328 54L1191.5 85Z" fill="#6029b7" stroke="#6029b7"></path><path d="M345.5 0L255 45L327.5 125Z" fill="#6732be" stroke="#6732be"></path><path d="M327.5 125L255 200L338.5 200Z" fill="#733fc9" stroke="#733fc9"></path><path d="M255 45L255 200L327.5 125Z" fill="#6732be" stroke="#6732be"></path><path d="M345.5 0L195 0L255 45Z" fill="#5c24b3" stroke="#5c24b3"></path><path d="M255 45L156.5 200L255 200Z" fill="#6f3bc5" stroke="#6f3bc5"></path><path d="M1289.5 200L1401 200L1328 54Z" fill="#733fc9" stroke="#733fc9"></path><path d="M1401 200L1459.5 134L1328 54Z" fill="#6f3bc5" stroke="#6f3bc5"></path><path d="M1328 54L1501.5 0L1295 0Z" fill="#6732be" stroke="#6732be"></path><path d="M195 0L141.5 0L255 45Z" fill="#7743cc" stroke="#7743cc"></path><path d="M141.5 0L156.5 200L255 45Z" fill="#7a48d0" stroke="#7a48d0"></path><path d="M1436.5 200L1459.5 134L1401 200Z" fill="#733fc9" stroke="#733fc9"></path><path d="M1459.5 134L1501.5 0L1328 54Z" fill="#6b37c1" stroke="#6b37c1"></path><path d="M141.5 0L63.5 121L156.5 200Z" fill="#6f3bc5" stroke="#6f3bc5"></path><path d="M1436.5 200L1536 160L1459.5 134Z" fill="#6b37c1" stroke="#6b37c1"></path><path d="M1459.5 134L1536 160L1501.5 0Z" fill="#5c24b3" stroke="#5c24b3"></path><path d="M1436.5 200L1541 200L1536 160Z" fill="#6732be" stroke="#6732be"></path><path d="M0 0L0 91L63.5 121Z" fill="#6732be" stroke="#6732be"></path><path d="M63.5 121L0 200L156.5 200Z" fill="#7743cc" stroke="#7743cc"></path><path d="M141.5 0L0 0L63.5 121Z" fill="#8250d7" stroke="#8250d7"></path><path d="M1536 160L1601 0L1501.5 0Z" fill="#642eba" stroke="#642eba"></path><path d="M1673.5 0L1601 0L1536 160Z" fill="#8250d7" stroke="#8250d7"></path><path d="M0 91L0 200L63.5 121Z" fill="#6b37c1" stroke="#6b37c1"></path><path d="M1738.5 51L1673.5 0L1536 160Z" fill="#7e4cd3" stroke="#7e4cd3"></path><path d="M1739.5 200L1738.5 51L1536 160Z" fill="#7a48d0" stroke="#7a48d0"></path><path d="M1541 200L1739.5 200L1536 160Z" fill="#7a48d0" stroke="#7a48d0"></path><path d="M1738.5 51L1800 0L1673.5 0Z" fill="#5c24b3" stroke="#5c24b3"></path><path d="M1800 140L1800 0L1738.5 51Z" fill="#8250d7" stroke="#8250d7"></path><path d="M1739.5 200L1800 140L1738.5 51Z" fill="#8250d7" stroke="#8250d7"></path><path d="M1739.5 200L1800 200L1800 140Z" fill="#6732be" stroke="#6732be"></path></g></svg>