<svg width="124" height="46" viewBox="0 0 124 46" fill="none" xmlns="http://www.w3.org/2000/svg">
<g clip-path="url(#clip0_525_24699)">
<path d="M0 33.5488H5.78708V34.8363H1.3907V37.8659H5.44185V39.0891H1.3907V42.9711H0V33.5488Z" fill="#6B6B6B"/>
<path d="M9.886 35.6348C11.9184 35.6348 13.2896 37.1564 13.2896 39.4037C13.2896 41.651 11.9242 43.1726 9.886 43.1726C7.84775 43.1726 6.48047 41.651 6.48047 39.4037C6.48047 37.1564 7.8536 35.6348 9.886 35.6348ZM9.886 36.8599C8.59283 36.8599 7.79898 37.8353 7.79898 39.3959C7.79898 40.9565 8.59283 41.9319 9.886 41.9319C11.1791 41.9319 11.971 40.9565 11.971 39.3959C11.971 37.8353 11.1772 36.8599 9.886 36.8599Z" fill="#6B6B6B"/>
<path d="M14.4805 35.8377H15.7191V36.4229H15.7464C16.0292 35.9801 16.5812 35.7109 17.2405 35.7109C17.5085 35.7139 17.7751 35.75 18.0343 35.8182L17.7788 37.1369C17.5384 37.0629 17.289 37.0222 17.0376 37.016C16.2164 37.016 15.799 37.5817 15.799 38.8185V42.9718H14.4805V35.8377Z" fill="#6B6B6B"/>
<path d="M18.8613 35.8381H20.1272V36.398H20.1525C20.3769 36.1509 20.6516 35.9546 20.958 35.8224C21.2645 35.6902 21.5957 35.625 21.9294 35.6313C22.2848 35.6251 22.6367 35.7023 22.9568 35.8568C23.2769 36.0113 23.5564 36.2388 23.7726 36.5209H23.7921C24.0358 36.2431 24.3357 36.0201 24.6719 35.8668C25.0081 35.7134 25.3731 35.6332 25.7426 35.6313C27.1957 35.6313 28.2782 36.6419 28.2782 38.0679V42.9722H26.9851V38.2903C26.9851 37.43 26.4331 36.8642 25.5866 36.8642C24.7401 36.8642 24.1861 37.4709 24.1861 38.3722V42.9761H22.9534V38.2942C22.9534 37.4339 22.3878 36.8681 21.5666 36.8681C20.7045 36.8681 20.1525 37.4748 20.1525 38.3761V42.98H18.8613V35.8381Z" fill="#6B6B6B"/>
<path d="M32.7689 35.6348C34.7057 35.6348 35.9989 37.1018 35.9989 39.2418V39.7939H30.7872C30.78 40.3738 30.9806 40.9371 31.3528 41.3818C31.527 41.5845 31.7446 41.7455 31.9893 41.8529C32.2341 41.9602 32.4998 42.0113 32.7669 42.0022C33.668 42.0022 34.2064 41.651 34.7993 40.6971L35.8214 41.3818C35.1894 42.5679 34.1401 43.1726 32.7806 43.1726C30.8008 43.1726 29.4648 41.651 29.4648 39.4037C29.4648 37.1564 30.8184 35.6348 32.7689 35.6348ZM34.692 38.7853C34.6394 37.6148 33.8982 36.8053 32.7689 36.8053C32.2502 36.8169 31.7564 37.0302 31.3923 37.3998C31.0282 37.7694 30.8223 38.2664 30.8184 38.7853H34.692Z" fill="#6B6B6B"/>
<path d="M37.1894 35.8377H38.424V36.4229H38.4514C38.7342 35.9801 39.2862 35.7109 39.9454 35.7109C40.2134 35.7139 40.4801 35.75 40.7393 35.8182L40.4837 37.1369C40.244 37.0631 39.9953 37.0224 39.7445 37.016C38.9234 37.016 38.5061 37.5817 38.5061 38.8185V42.9718H37.1855L37.1894 35.8377Z" fill="#6B6B6B"/>
<path d="M41.5684 33.1445H42.887V42.9707H41.5684V33.1445Z" fill="#6B6B6B"/>
<path d="M46.4064 42.4335L43.6621 35.8379H45.047L47.0657 40.9099H47.093L49.1391 35.8379H50.52L46.2797 45.9996H44.9143L46.4064 42.4335Z" fill="#6B6B6B"/>
<path d="M53.9375 33.5488H55.3243V38.1117H55.3497L59.079 33.5488H60.735L57.2885 37.6943L61.0841 42.9711H59.4008L56.4283 38.7379H56.401L55.3243 40.0567V42.9711H53.9375V33.5488Z" fill="#6B6B6B"/>
<path d="M64.3198 35.6348C66.2586 35.6348 67.5498 37.1018 67.5498 39.2418V39.7939H62.342C62.3339 40.3739 62.5347 40.9375 62.9077 41.3818C63.0813 41.5847 63.2984 41.7458 63.5429 41.8532C63.7874 41.9606 64.0529 42.0115 64.3198 42.0022C65.2209 42.0022 65.7593 41.651 66.3522 40.6971L67.3743 41.3818C66.7423 42.5679 65.693 43.1726 64.3335 43.1726C62.3557 43.1726 61.0176 41.651 61.0176 39.4037C61.0176 37.1564 62.3693 35.6348 64.3198 35.6348ZM66.2449 38.7853C66.1903 37.6148 65.4511 36.8053 64.3198 36.8053C63.8011 36.8169 63.3074 37.0302 62.9432 37.3998C62.5791 37.7694 62.3733 38.2664 62.3693 38.7853H66.2449Z" fill="#6B6B6B"/>
<path d="M71.7338 35.6348C73.6726 35.6348 74.9638 37.1018 74.9638 39.2418V39.7939H69.756C69.7488 40.3738 69.9494 40.9371 70.3216 41.3818C70.4955 41.5845 70.7126 41.7454 70.9571 41.8528C71.2015 41.9602 71.467 42.0112 71.7338 42.0022C72.6368 42.0022 73.1752 41.651 73.7662 40.6971L74.7902 41.3818C74.1563 42.5679 73.1069 43.1726 71.7474 43.1726C69.7696 43.1726 68.4316 41.651 68.4316 39.4037C68.4316 37.1564 69.7833 35.6348 71.7338 35.6348ZM73.6589 38.7853C73.6043 37.6148 72.8651 36.8053 71.7338 36.8053C71.2151 36.8169 70.7213 37.0302 70.3572 37.3998C69.9931 37.7694 69.7872 38.2664 69.7833 38.7853H73.6589Z" fill="#6B6B6B"/>
<path d="M76.1562 35.838H77.4476V36.4973H77.4749C77.735 36.22 78.0501 36.0001 78.4001 35.8516C78.75 35.7031 79.1272 35.6294 79.5073 35.6351C81.3641 35.6351 82.71 37.1957 82.71 39.404C82.71 41.6123 81.3641 43.1729 79.5209 43.1729C79.1441 43.1785 78.7702 43.1059 78.4228 42.9599C78.0754 42.8139 77.7619 42.5975 77.5022 42.3243H77.4749V45.9996H76.1562V35.838ZM79.4 36.8602C79.1479 36.8586 78.898 36.9069 78.6646 37.0023C78.4313 37.0977 78.219 37.2382 78.0401 37.4158C77.8612 37.5935 77.7192 37.8048 77.6222 38.0375C77.5252 38.2702 77.4751 38.5198 77.4749 38.772V40.0244C77.4715 40.2746 77.5177 40.523 77.6107 40.7554C77.7037 40.9877 77.8418 41.1994 78.0169 41.3781C78.192 41.5569 78.4008 41.6993 78.6311 41.797C78.8614 41.8948 79.1088 41.9461 79.359 41.9478C80.5976 41.9478 81.3915 40.9725 81.3915 39.4118C81.3915 37.8512 80.6249 36.8602 79.4 36.8602Z" fill="#6B6B6B"/>
<path d="M84.9844 34.8363H82.1133V33.5488H89.2326V34.8363H86.379V42.9711H84.9923L84.9844 34.8363Z" fill="#6B6B6B"/>
<path d="M89.0273 35.8377H90.2659V36.4229H90.2931C90.576 35.9801 91.126 35.7109 91.7872 35.7109C92.0552 35.7139 92.3219 35.75 92.5811 35.8182L92.3255 37.1369C92.0852 37.0629 91.8358 37.0222 91.5844 37.016C90.7632 37.016 90.3458 37.5817 90.3458 38.8185V42.9718H89.0273V35.8377Z" fill="#6B6B6B"/>
<path d="M93.3495 35.8379H94.668V40.2389C94.668 41.382 95.1927 41.9478 96.2694 41.9478C97.2446 41.9478 97.898 41.2747 97.898 40.2389V35.8379H99.2166V42.9719H97.9526V42.3379H97.9117C97.4806 42.8627 96.7004 43.1729 95.8793 43.1729C94.2779 43.1729 93.3438 42.1975 93.3438 40.4808L93.3495 35.8379Z" fill="#6B6B6B"/>
<path d="M103.764 35.6339C104.523 35.6136 105.263 35.867 105.85 36.3479C106.43 36.8225 106.807 37.5019 106.901 38.246L105.635 38.5016C105.459 37.4657 104.773 36.859 103.764 36.859C102.526 36.859 101.732 37.8344 101.732 39.395C101.732 40.9557 102.526 41.9311 103.764 41.9311C104.773 41.9311 105.432 41.3458 105.635 40.2885L106.901 40.546C106.807 41.2935 106.431 41.9767 105.85 42.4558C105.261 42.9326 104.521 43.1812 103.764 43.1562C101.787 43.1562 100.414 41.6228 100.414 39.3872C100.414 37.1516 101.787 35.6339 103.764 35.6339Z" fill="#6B6B6B"/>
<path d="M108.049 33.1445H109.368V38.8506H109.395L112.159 35.8366H113.936L111.31 38.6223L114.098 42.9707H112.549L110.423 39.5373H110.403L109.368 40.6687V42.9707H108.049V33.1445Z" fill="#6B6B6B"/>
<path d="M114.871 33.2109H116.311V34.5979H114.871V33.2109ZM114.937 35.8367H116.252V42.9707H114.933L114.937 35.8367Z" fill="#6B6B6B"/>
<path d="M117.738 35.8377H119.004V36.4697H119.031C119.287 36.2041 119.594 35.9932 119.934 35.8497C120.274 35.7062 120.64 35.6331 121.009 35.6348C122.637 35.6348 123.7 36.698 123.7 38.3659V42.9698H122.382V38.5688C122.382 37.5056 121.775 36.8599 120.753 36.8599C119.731 36.8599 119.058 37.5466 119.058 38.5688V42.9717H117.738V35.8377Z" fill="#6B6B6B"/>
<path d="M80.4711 0H75.0234V4.86138H80.4711V0Z" fill="#6B6B6B"/>
<path d="M67.9063 23.5305V11.8023H72.7046V7.05017H67.9063V0H62.445V7.04626H59.3438V11.7984H62.4469V28.3977H72.7046V23.5207L67.9063 23.5305Z" fill="#6B6B6B"/>
<path d="M21.0516 7.04297H14.5272L4.77478 23.5291H0V28.4061H7.62444L15.6039 14.9047V28.3964H22.0405L29.9828 14.8657V28.3964H35.4442V7.04297H28.8905L21.0516 20.285V7.04297Z" fill="#6B6B6B"/>
<path d="M80.475 7.04297H75.0137V28.3964H80.475V7.04492V7.04297Z" fill="#6B6B6B"/>
<path d="M80.471 0H75.0234V4.86528H80.471V0Z" fill="#6B6B6B"/>
<path d="M48.2629 6.79492H48.2219C42.349 6.79492 37.6328 11.6719 37.6328 17.7194C37.6328 23.7668 42.349 28.6438 48.2219 28.6438H48.2629C54.1377 28.6438 58.8111 23.72 58.8111 17.7194C58.8111 11.7187 54.1377 6.79492 48.2629 6.79492ZM48.2629 23.1816H48.2219C45.3274 23.1816 43.0941 20.7412 43.0941 17.7194C43.0941 14.6976 45.3274 12.2572 48.2219 12.2572H48.2629C51.0755 12.2572 53.3556 14.7386 53.3556 17.7194C53.3517 20.7372 51.1184 23.1777 48.2629 23.1777V23.1816Z" fill="#6B6B6B"/>
<path d="M114.223 23.7941C116.418 23.7941 117.785 22.5125 118.157 21.3927H123.619C123.412 23.1738 121.052 28.6418 114.219 28.6418C108.05 28.6418 103.492 24.0029 103.492 17.7057C103.492 11.5353 108.173 6.77148 114.052 6.77148C119.642 6.77148 123.999 11.6582 123.999 17.6238C123.999 18.2441 123.958 18.8255 123.917 19.239H109.093C109.462 21.8492 111.036 23.7941 114.223 23.7941ZM109.261 15.3452H118.624C118.038 13.1994 116.595 11.6173 114.069 11.6173C111.422 11.6173 109.881 13.1506 109.267 15.3452H109.261Z" fill="#6B6B6B"/>
<path d="M98.6949 7.04902L93.491 21.0166L88.2871 7.04902H82.4473L90.7077 28.3986H96.2041L104.513 7.06073H98.6949C98.6949 7.06073 98.6949 7.04707 98.6949 7.04902Z" fill="#6B6B6B"/>
</g>
<defs>
<clipPath id="clip0_525_24699">
<rect width="124" height="46" fill="white"/>
</clipPath>
</defs>
</svg>
