<svg width="159" height="30" viewBox="0 0 159 30" fill="none" xmlns="http://www.w3.org/2000/svg">
<g clip-path="url(#clip0_749_64992)">
<path fill-rule="evenodd" clip-rule="evenodd" d="M68.6923 7.48648C70.7489 7.48648 72.7621 7.8602 73.9749 8.19812L74.0787 8.2274L74.1764 7.72798H82.5612V10.5062L80.7052 10.707L83.3566 20.1128H83.5885L86.5381 8.16312H91.5425L94.3926 20.1128H94.5915L97.0771 10.707L95.188 10.5062L95.6189 7.72798H102.579L102.578 9.60152C102.428 9.90185 102.288 10.2086 102.16 10.5213L101.385 10.6735C100.939 10.7379 100.738 10.8951 100.606 11.294L100.59 11.343L96.5137 25.1671H91.2773L88.6923 13.9538H88.4935L85.8753 25.1671H79.9099L75.734 11.3095C75.607 10.9246 75.4495 10.8471 75.0866 10.7529L75.0381 10.7405L74.7458 10.6772L74.7646 10.7529V13.2906L71.2335 13.0573L70.9034 11.3225C70.8708 11.0557 70.8044 10.9224 70.5739 10.8556L70.4686 10.8249C70.0224 10.7026 69.2843 10.5887 68.4618 10.5887C66.8117 10.5887 65.8874 11.2225 65.8874 12.2899C65.8874 13.4563 67.208 13.8464 68.8454 14.2257L69.9509 14.4798L70.1038 14.5165C72.6054 15.1245 75.2598 16.1519 75.2598 19.8616C75.2598 23.9313 71.993 25.5989 67.8016 25.5989C64.8781 25.5989 62.0172 24.8402 61.3195 24.4309L61.2674 24.3982V19.5616L64.7985 19.8284L65.129 21.7297L65.1393 21.8109C65.176 22.0546 65.2562 22.1697 65.5248 22.2298L65.6022 22.2548L65.6903 22.2808L65.789 22.3077L65.9025 22.3359C66.3786 22.4493 67.1187 22.5635 68.066 22.5635C69.8144 22.5635 70.8044 22.0633 70.8044 20.829C70.8044 19.5166 69.5273 19.108 67.8841 18.8091L67.1325 18.6723L66.8124 18.611C64.2386 18.1048 61.3999 17.1885 61.3999 13.3241C61.3999 9.188 64.8975 7.48648 68.6923 7.48648ZM38.2587 7.48648C43.1974 7.48648 45.2091 8.82745 45.2488 13.3851L45.2494 13.5242L45.2495 21.6783L45.2506 21.7678L45.2535 21.8474L45.2589 21.9203C45.2843 22.1705 45.3747 22.2346 45.6859 22.2837L45.7746 22.2966L47.1098 22.5228V19.5616L50.6217 19.8284L50.9503 21.7297C50.9823 22.0297 51.0487 22.1633 51.344 22.2298L51.421 22.2548L51.5086 22.2808L51.6068 22.3077L51.7197 22.3359C52.1931 22.4493 52.9292 22.5635 53.8713 22.5635C55.6102 22.5635 56.5948 22.0633 56.5948 20.829C56.5948 19.5604 55.4079 19.1363 53.8526 18.8394L52.9327 18.6704L52.6147 18.609L52.384 18.5622L52.1593 18.5144C49.7347 17.9835 47.2416 16.9554 47.2416 13.3241C47.2416 9.188 50.7201 7.48648 54.4942 7.48648C56.9998 7.48648 59.4442 8.04761 60.4353 8.41615L60.5334 8.45388V13.2906L57.0215 13.0573L56.6932 11.3225C56.6609 11.0557 56.5948 10.9224 56.3656 10.8556C55.9389 10.7223 55.1512 10.5887 54.265 10.5887C52.6238 10.5887 51.7047 11.2225 51.7047 12.2899C51.7047 13.4765 53.0637 13.8594 54.731 14.2452L55.5118 14.4248C58.1045 15.025 61.0259 15.9591 61.0259 19.8616C61.0259 23.931 57.7769 25.5989 53.6084 25.5989C50.9531 25.5989 48.3557 24.9671 47.3959 24.5453L47.35 24.5247V25.1985H41.3108L40.9822 23.3973L40.8184 23.364C39.5716 24.5983 37.9304 25.5989 35.3047 25.5989C31.1699 25.5989 30.5129 22.7306 30.5129 20.6622C30.5129 17.36 32.5076 15.8232 36.5281 15.5338L40.4247 15.2589L40.4246 13.36L40.4229 13.171L40.4204 13.0462L40.4138 12.8638L40.4073 12.7455C40.3316 11.5563 39.9513 10.7891 38.2257 10.7891L38.0245 10.7906L37.8951 10.7934C36.5568 10.8317 35.8517 11.1573 35.8303 12.9393L35.8298 13.024L31.2019 12.6232C31.2019 8.16559 35.1589 7.49955 38.1678 7.48667L38.2587 7.48648ZM157.175 0L157.176 21.6143L157.179 21.6915C157.194 21.9817 157.27 22.0516 157.604 22.1045L159.248 22.3489V24.9607H153.223L152.899 23.1093L152.672 23.0762C151.312 24.4317 149.724 25.3574 147.36 25.3574C143.537 25.3574 141.075 22.8779 141.075 16.5633C141.075 9.91816 144.347 7.40556 147.943 7.40556C149.777 7.40556 151.21 8.03566 152.422 8.9268L152.51 8.99246V3.96726C152.51 3.65406 152.394 3.42987 152.134 3.32281L152.089 3.30605L150.307 2.6779L150.664 0H157.175ZM138.332 7.24498C139.073 7.24498 140.53 7.37077 141.168 7.53116L141.231 7.54788V13.6731L137.233 13.5385L136.9 11.7548C136.833 11.4519 136.733 11.3846 136.466 11.3846C135.651 11.3846 134.688 12.0404 134.161 12.4824L134.067 12.5625L134.067 21.5392C134.07 22.0113 134.116 22.1153 134.555 22.1509L137.899 22.4235V25.1159H127.003V22.3898L128.502 22.1879C128.954 22.1228 129.031 22.0261 129.035 21.5624L129.035 11.6538C129.035 11.3004 128.944 11.0697 128.646 10.9617L128.602 10.9471L126.821 10.3136L126.807 10.2804L127.169 7.58153H133.034L133.434 10.274H133.634C134.734 8.55753 136.2 7.24498 138.332 7.24498ZM23.1366 0.965997C29.2614 0.965997 31.1147 4.23516 31.1147 8.07093C31.1147 13.8167 27.7085 16.1627 22.2114 16.209L22.0442 16.2098H19.6276L19.6281 21.6414L19.63 21.7259L19.6342 21.8037C19.6552 22.0827 19.7406 22.1501 20.0698 22.2014L20.1576 22.214L24.8912 22.4809V25.1159H11.9147L11.9147 25.1082L11.9002 25.1159H0.384347V22.4924L3.20545 22.2594C3.63443 22.2285 3.71998 22.1109 3.72948 21.6905L3.73044 21.5957V10.1267C3.73044 9.65097 3.37634 9.72946 0.910049 10.5736L0 7.85007L5.63674 4.58849H8.68455L8.68466 21.6442L8.68577 21.734L8.6886 21.8144C8.70543 22.1436 8.78804 22.2256 9.16506 22.2561L9.20988 22.2594L11.9002 22.4924L11.9147 22.4995L11.9147 22.4809L14.0002 22.2472C14.4324 22.1852 14.5192 22.0939 14.5289 21.6751L14.5299 21.5802V4.53525C14.5299 4.05176 14.4676 3.91049 14.0452 3.87159L14.0002 3.86792L11.9147 3.63463V0.965997H23.1366ZM40.332 17.8528L38.1006 18.0181C36.1653 18.1502 35.4762 18.6459 35.4762 19.9684C35.4762 21.2912 36.2637 21.7869 37.3464 21.7869C38.4283 21.7869 39.5102 21.196 40.2624 20.6481L40.332 20.5968V17.8528ZM149.376 11.2434C146.999 11.2434 146.052 13.4912 146.032 16.4078L146.032 16.5032C146.032 19.7322 146.941 21.5299 148.986 21.5299C150.058 21.5299 151.223 20.9016 152.092 20.1638L152.168 20.0984V12.2421C151.356 11.6762 150.317 11.2434 149.376 11.2434ZM21.4954 4.62873H19.5592V12.5959L21.2649 12.5957L21.394 12.5945L21.5844 12.5901L21.7077 12.5856L21.8891 12.5761C23.8435 12.4554 25.7604 11.7064 25.7604 8.36427C25.7604 5.19032 23.8242 4.62873 21.4954 4.62873Z" fill="#6B6B6B"/>
<path fill-rule="evenodd" clip-rule="evenodd" d="M114.445 1.76562C122.165 1.76562 128.423 8.08638 128.423 15.8833C128.423 23.6805 122.165 30.0009 114.445 30.0009C106.725 30.0009 100.467 23.6805 100.467 15.8833C100.467 8.08638 106.725 1.76562 114.445 1.76562ZM114.445 4.63327C108.293 4.63327 103.306 9.67012 103.306 15.8833C103.306 22.0967 108.293 27.1333 114.445 27.1333C120.597 27.1333 125.584 22.0967 125.584 15.8833C125.584 9.67012 120.597 4.63327 114.445 4.63327ZM114.445 7.50092C119.028 7.50092 122.744 11.2539 122.744 15.8833C122.744 20.5129 119.028 24.2656 114.445 24.2656C109.861 24.2656 106.145 20.5129 106.145 15.8833C106.145 11.2539 109.861 7.50092 114.445 7.50092ZM115.784 9.92739H113.106C112.772 9.92739 112.499 10.2209 112.48 10.5909L112.479 10.6324V13.459C112.483 13.5639 112.518 13.67 112.581 13.7542L112.606 13.7847L112.997 14.2253C113.152 14.3991 113.16 14.6754 113.022 14.86L112.997 14.8899L112.606 15.3305C112.536 15.4089 112.494 15.512 112.485 15.6215L112.483 15.6628L112.479 21.1342C112.479 21.5096 112.74 21.8165 113.069 21.838L113.106 21.8392H115.784C116.118 21.8392 116.39 21.5457 116.409 21.1756L116.41 21.1342V18.5216C116.41 18.4108 116.376 18.3041 116.313 18.2198L116.288 18.1893L115.896 17.7487C115.742 17.5748 115.734 17.2986 115.872 17.1139L115.896 17.084L116.288 16.6434C116.358 16.5651 116.4 16.4619 116.409 16.3524L116.41 16.3111V10.6324C116.41 10.243 116.13 9.92739 115.784 9.92739Z" fill="#6B6B6B"/>
</g>
<defs>
<clipPath id="clip0_749_64992">
<rect width="159" height="30" fill="white"/>
</clipPath>
</defs>
</svg>
