<svg width="1000" height="127" viewBox="0 0 1000 127" fill="none" xmlns="http://www.w3.org/2000/svg">
<g clip-path="url(#clip0_525_24741)">
<path d="M84.637 70.7583C84.637 87.4049 72.2022 97.2324 58.1629 97.2324C42.9202 97.2324 31.6887 86.2015 31.6887 70.7583V4.17188H0V69.3544C0 99.8397 20.8584 126.314 58.3634 126.314C97.2724 126.314 118.131 99.8397 118.131 69.3544V4.17188H84.637V70.7583Z" fill="#6B6B6B"/>
<path d="M202.767 1.36328C162.454 1.36328 143 27.8374 143 58.3228V123.505H174.889V56.9188C174.889 40.2722 187.324 30.4447 201.363 30.4447C216.606 30.4447 227.838 41.4756 227.838 56.9188V123.505H259.727V58.3228C261.131 27.8374 240.272 1.36328 202.767 1.36328Z" fill="#6B6B6B"/>
<path d="M322.303 123.707V4.17188H290.213V20.8185V123.707H322.303Z" fill="#6B6B6B"/>
<path d="M409.747 76.374L376.453 4.17188H343.16L398.716 123.707H420.777L476.333 4.17188H443.04L409.747 76.374Z" fill="#6B6B6B"/>
<path d="M529.281 123.707V4.17188H497.191V20.8185V123.707H529.281Z" fill="#6B6B6B"/>
<path d="M593.061 37.4646C593.061 31.8489 600.081 27.8376 609.708 27.8376C618.132 27.8376 626.355 32.0494 633.374 36.2612L648.617 12.5949C640.193 6.97921 623.547 0.160156 608.304 0.160156C584.638 0.160156 562.375 13.9989 562.375 37.6651C562.375 76.5741 620.739 69.5545 620.739 87.605C620.739 93.2207 613.719 97.2319 605.496 97.2319C593.061 97.2319 580.426 93.0201 572.203 84.7971L554.152 109.867C567.991 119.494 586.042 126.514 602.688 126.514C627.758 126.514 649.82 112.675 649.82 89.0089C651.425 47.2921 593.061 54.1112 593.061 37.4646Z" fill="#6B6B6B"/>
<path d="M708.383 123.707V4.17188H676.494V20.8185V123.707H708.383Z" fill="#6B6B6B"/>
<path d="M795.829 1.36328C759.728 1.36328 731.85 29.2413 731.85 63.9385C731.85 98.6356 759.728 126.514 795.829 126.514C831.93 126.514 859.808 98.6356 859.808 63.9385C859.808 29.2413 831.93 1.36328 795.829 1.36328ZM795.829 95.8277C777.778 95.8277 763.939 81.989 763.939 63.9385C763.939 45.8879 776.374 30.6452 795.829 30.6452C815.283 30.6452 827.718 45.8879 827.718 63.9385C827.718 81.989 815.283 95.8277 795.829 95.8277Z" fill="#6B6B6B"/>
<path d="M941.636 1.36328C902.728 1.36328 881.869 27.8374 881.869 58.3228V123.505H913.758V56.9188C913.758 40.2722 926.193 30.4447 940.233 30.4447C955.475 30.4447 966.707 41.4756 966.707 56.9188V123.505H1000V58.3228C1000 27.8374 979.141 1.36328 941.636 1.36328V1.36328Z" fill="#6B6B6B"/>
</g>
<defs>
<clipPath id="clip0_525_24741">
<rect width="1000" height="127" fill="white"/>
</clipPath>
</defs>
</svg>
